{"title":"The.Fast.And.The.Furious.2001.BluRay.1080p.x264.DTS-WiKi","uid":11768728,"size":9392286217,"categoryP":"video","categoryS":"hd___movies","magnet":"?xt=urn:btih:f83afa7fae6d4ff8fbf44e2344595d352dd5d1ee&amp;dn=The.Fast.And.The.Furious.2001.BluRay.1080p.x264.DTS-WiKi&amp;tr=udp%3A%2F%2Ftracker.openbittorrent.com%3A80&amp;tr=udp%3A%2F%2Fopen.demonii.com%3A1337&amp;tr=udp%3A%2F%2Ftracker.coppersurfer.tk%3A6969&amp;tr=udp%3A%2F%2Fexodus.desync.com%3A6969","seeders":8,"leechers":7,"uploader":"vickey1992","files":3,"time":1426971477,"description":"The.Fast.And.The.Furious.2001.BluRay.1080p.x264.DTS-WiKi \n\n\n\nNAME.................: The.Fast.And.The.Furious &lt;2001&gt;\nGENRE................: Action | Crime | Thriller \nRATiNG...............: 5.9/10 55,473 votes\niMDB http://www.imdb.com/title/tt0232500/ \nRELEASE DATE.........: 2009/04/03 \nENCODE BY............: wujinfeisw \nRUNTiME..............: 106Mins \nFiLE SiZE............: 8.74 GB \nViDEO CODEC..........: x264 9700kbps \nAUDiO CODEC..........: DTS 1536Kbps \nFRAMERATE............: 23.976fps \nRESOLUTiON...........: 1920 x 816 \nLANGUAGE.............: English \nSUBTiTLES............: None \nSOURCE...............: BluRay \n\nScreens:\n\nID : 1\nFormat : AVC\nFormat/Info : Advanced Video Codec\nFormat profile : &lt;a class=&quot;__cf_email__&quot; href=&quot;/cdn-cgi/l/email-protection&quot; data-cfemail=&quot;abe3c2ccc3ebe79f859a&quot;&gt;[email&amp;#160;protected]&lt;/a&gt;&lt;script cf-hash='f9e31' type=&quot;text/javascript&quot;&gt;\n/* &lt;![CDATA[ */!function(){try{var t=&quot;currentScript&quot;in document?document.currentScript:function(){for(var t=document.getElementsByTagName(&quot;script&quot;),e=t.length;e--;)if(t[e].getAttribute(&quot;cf-hash&quot;))return t[e]}();if(t&amp;&amp;t.previousSibling){var e,r,n,i,c=t.previousSibling,a=c.getAttribute(&quot;data-cfemail&quot;);if(a){for(e=&quot;&quot;,r=parseInt(a.substr(0,2),16),n=2;a.length-n;n+=2)i=parseInt(a.substr(n,2),16)^r,e+=String.fromCharCode(i);e=document.createTextNode(e),c.parentNode.replaceChild(e,c)}}}catch(u){}}();/* ]]&gt; */&lt;/script&gt;\nFormat settings, CABAC : Yes\nFormat settings, ReFrames : 4 frames\nCodec ID : V_MPEG4/ISO/AVC\nDuration : 1h 46mn\nBit rate : 10.2 Mbps\nWidth : 1 920 pixels\nHeight : 816 pixels\nDisplay aspect ratio : 2.35:1\nFrame rate mode : Constant\nFrame rate : 23.976 fps\nColor space : YUV\nChroma subsampling : 4:2:0\nBit depth : 8 bits\nScan type : Progressive\nBits/(Pixel*Frame) : 0.271\nStream size : 7.45 GiB (85%)\nWriting library : x264 core 66 r1115M 11863ac\nEncoding settings : cabac=1 / ref=4 / deblock=1:-1:-1 / analyse=0x3:0x113 / me=umh / subme=7 / psy_rd=1.0:0.0 / mixed_ref=1 / me_range=16 / chroma_me=1 / trellis=1 / 8x8dct=1 / cqm=0 / deadzone=21,11 / chroma_qp_offset=-2 / threads=6 / nr=0 / decimate=1 / mbaff=0 / bframes=16 / b_pyramid=1 / b_adapt=1 / b_bias=0 / direct=3 / wpredb=1 / keyint=250 / keyint_min=25 / scenecut=40(pre) / rc=2pass / bitrate=10196 / ratetol=1.0 / qcomp=0.60 / qpmin=10 / qpmax=51 / qpstep=4 / cplxblur=20.0 / qblur=0.5 / ip_ratio=1.40 / pb_ratio=1.30 / aq=1:1.00\nLanguage : English\nDefault : Yes\nForced : No\n\nAudio\nID : 2\nFormat : DTS\nFormat/Info : Digital Theater Systems\nMode : 16\nFormat settings, Endianness : Big\nCodec ID : A_DTS\nDuration : 1h 46mn\nBit rate mode : Constant\nBit rate : 1 509 Kbps\nChannel(s) : 6 channels\nChannel positions : Front: L C R, Side: L R, LFE\nSampling rate : 48.0 KHz\nBit depth : 24 bits\nCompression mode : Lossy\nStream size : 1.13 GiB (13%)\nLanguage : English\nDefault : Yes\nForced : No","torrent":{"xt":"urn:btih:f83afa7fae6d4ff8fbf44e2344595d352dd5d1ee","amp;dn":"The.Fast.And.The.Furious.2001.BluRay.1080p.x264.DTS-WiKi","amp;tr":["udp%3A%2F%2Ftracker.openbittorrent.com%3A80","udp%3A%2F%2Fopen.demonii.com%3A1337","udp%3A%2F%2Ftracker.coppersurfer.tk%3A6969","udp%3A%2F%2Fexodus.desync.com%3A6969"],"infoHash":"f83afa7fae6d4ff8fbf44e2344595d352dd5d1ee","infoHashBuffer":{"type":"Buffer","data":[248,58,250,127,174,109,79,248,251,244,78,35,68,89,93,53,45,213,209,238]},"announce":[],"urlList":[]}}